# xmcd
# Copyright (C) 1995-1998 Ti Kan
#
# Track frame offsets:
#       150
#       21124
#       40600
#       60208
#       76732
#       94410
#       111824
#       134344
#       149906
#       161398
#       178595
#       195372
#
# Disc length: 2856 seconds
#
# Revision: 2
# Processed by: cddbd v1.4PL0 Copyright (c) Steve Scherf et al.
# Submitted via: CD-Transfer v1.0
#
DISCID=950b260c
DTITLE=Lö Schanal - Stinksteiriich
DYEAR=2004
DGENRE=
TTITLE0=Sicher
TTITLE1=Liebi Isch...
TTITLE2=Rot Oder Schwarz
TTITLE3=König
TTITLE4=Liechtjahr
TTITLE5=Bisches Du
TTITLE6=Anders Läbe
TTITLE7=Verpassti Chance
TTITLE8=Arche Noah
TTITLE9=Ohni Dich
TTITLE10=Summer
TTITLE11=No Lang Nöd Alles
EXTD=
EXTT0=
EXTT1=
EXTT2=
EXTT3=
EXTT4=
EXTT5=
EXTT6=
EXTT7=
EXTT8=
EXTT9=
EXTT10=
EXTT11=
PLAYORDER=
